<svg xmlns="http://www.w3.org/2000/svg" xmlns:xlink="http://www.w3.org/1999/xlink" id="Capa_1" width="99" height="99" x="0" style="enable-background:new 0 0 99 99" y="0" version="1.1" viewBox="0 0 99 99" xml:space="preserve"><g><g><rect width="10.984" height="43.272" x="6.549" y="35.893"/><rect width="10.984" height="43.272" x="31.549" y="35.893"/><rect width="10.984" height="43.272" x="56.549" y="35.893"/><rect width="10.984" height="43.272" x="81.549" y="35.893"/><path d="M97,20.903h-1.059v-0.178c0-0.834-0.518-1.581-1.299-1.873L50.201,2.224c-0.453-0.169-0.949-0.169-1.402,0L4.356,18.853 c-0.781,0.292-1.299,1.039-1.299,1.873v0.178H2c-1.104,0-2,0.896-2,2v6.603c0,1.104,0.896,2,2,2h95c1.104,0,2-0.896,2-2v-6.603 C99,21.799,98.104,20.903,97,20.903z"/><path d="M97,83.903H2c-1.104,0-2,0.896-2,2v9c0,1.104,0.896,2,2,2h95c1.104,0,2-0.896,2-2v-9C99,84.799,98.104,83.903,97,83.903z"/></g></g></svg>